<?xml version="1.0" encoding="UTF-8"?>
<!DOCTYPE svg PUBLIC "-//W3C//DTD SVG 1.1//EN" "http://www.w3.org/Graphics/SVG/1.1/DTD/svg11.dtd">
<svg version="1.2" width="127mm" height="38.1mm" viewBox="0 0 12700 3810" preserveAspectRatio="xMidYMid" fill-rule="evenodd" stroke-width="28.222" stroke-linejoin="round" xmlns="http://www.w3.org/2000/svg" xmlns:ooo="http://xml.openoffice.org/svg/export" xmlns:xlink="http://www.w3.org/1999/xlink" xmlns:presentation="http://sun.com/xmlns/staroffice/presentation" xmlns:smil="http://www.w3.org/2001/SMIL20/" xmlns:anim="urn:oasis:names:tc:opendocument:xmlns:animation:1.0" xml:space="preserve">
 <defs class="ClipPathGroup">
  <clipPath id="presentation_clip_path" clipPathUnits="userSpaceOnUse">
   <rect x="0" y="0" width="12700" height="3810"/>
  </clipPath>
  <clipPath id="presentation_clip_path_shrink" clipPathUnits="userSpaceOnUse">
   <rect x="12" y="3" width="12675" height="3803"/>
  </clipPath>
 </defs>
 <defs class="TextShapeIndex">
  <g ooo:slide="id1" ooo:id-list="id3"/>
 </defs>
 <defs class="EmbeddedBulletChars">
  <g id="bullet-char-template-57356" transform="scale(0.00048828125,-0.00048828125)">
   <path d="M 580,1141 L 1163,571 580,0 -4,571 580,1141 Z"/>
  </g>
  <g id="bullet-char-template-57354" transform="scale(0.00048828125,-0.00048828125)">
   <path d="M 8,1128 L 1137,1128 1137,0 8,0 8,1128 Z"/>
  </g>
  <g id="bullet-char-template-10146" transform="scale(0.00048828125,-0.00048828125)">
   <path d="M 174,0 L 602,739 174,1481 1456,739 174,0 Z M 1358,739 L 309,1346 659,739 1358,739 Z"/>
  </g>
  <g id="bullet-char-template-10132" transform="scale(0.00048828125,-0.00048828125)">
   <path d="M 2015,739 L 1276,0 717,0 1260,543 174,543 174,936 1260,936 717,1481 1274,1481 2015,739 Z"/>
  </g>
  <g id="bullet-char-template-10007" transform="scale(0.00048828125,-0.00048828125)">
   <path d="M 0,-2 C -7,14 -16,27 -25,37 L 356,567 C 262,823 215,952 215,954 215,979 228,992 255,992 264,992 276,990 289,987 310,991 331,999 354,1012 L 381,999 492,748 772,1049 836,1024 860,1049 C 881,1039 901,1025 922,1006 886,937 835,863 770,784 769,783 710,716 594,584 L 774,223 C 774,196 753,168 711,139 L 727,119 C 717,90 699,76 672,76 641,76 570,178 457,381 L 164,-76 C 142,-110 111,-127 72,-127 30,-127 9,-110 8,-76 1,-67 -2,-52 -2,-32 -2,-23 -1,-13 0,-2 Z"/>
  </g>
  <g id="bullet-char-template-10004" transform="scale(0.00048828125,-0.00048828125)">
   <path d="M 285,-33 C 182,-33 111,30 74,156 52,228 41,333 41,471 41,549 55,616 82,672 116,743 169,778 240,778 293,778 328,747 346,684 L 369,508 C 377,444 397,411 428,410 L 1163,1116 C 1174,1127 1196,1133 1229,1133 1271,1133 1292,1118 1292,1087 L 1292,965 C 1292,929 1282,901 1262,881 L 442,47 C 390,-6 338,-33 285,-33 Z"/>
  </g>
  <g id="bullet-char-template-9679" transform="scale(0.00048828125,-0.00048828125)">
   <path d="M 813,0 C 632,0 489,54 383,161 276,268 223,411 223,592 223,773 276,916 383,1023 489,1130 632,1184 813,1184 992,1184 1136,1130 1245,1023 1353,916 1407,772 1407,592 1407,412 1353,268 1245,161 1136,54 992,0 813,0 Z"/>
  </g>
  <g id="bullet-char-template-8226" transform="scale(0.00048828125,-0.00048828125)">
   <path d="M 346,457 C 273,457 209,483 155,535 101,586 74,649 74,723 74,796 101,859 155,911 209,963 273,989 346,989 419,989 480,963 531,910 582,859 608,796 608,723 608,648 583,586 532,535 482,483 420,457 346,457 Z"/>
  </g>
  <g id="bullet-char-template-8211" transform="scale(0.00048828125,-0.00048828125)">
   <path d="M -4,459 L 1135,459 1135,606 -4,606 -4,459 Z"/>
  </g>
  <g id="bullet-char-template-61548" transform="scale(0.00048828125,-0.00048828125)">
   <path d="M 173,740 C 173,903 231,1043 346,1159 462,1274 601,1332 765,1332 928,1332 1067,1274 1183,1159 1299,1043 1357,903 1357,740 1357,577 1299,437 1183,322 1067,206 928,148 765,148 601,148 462,206 346,322 231,437 173,577 173,740 Z"/>
  </g>
 </defs>
 <g>
  <g id="id2" class="Master_Slide">
   <g id="bg-id2" class="Background"/>
   <g id="bo-id2" class="BackgroundObjects"/>
  </g>
 </g>
 <g class="SlideGroup">
  <g>
   <g id="container-id1">
    <g id="id1" class="Slide" clip-path="url(#presentation_clip_path)">
     <g class="Page">
      <g class="Group">
       <g class="com.sun.star.drawing.ClosedBezierShape">
        <g id="id3">
         <rect class="BoundingBox" stroke="none" fill="none" x="467" y="321" width="11767" height="3169"/>
         <path fill="rgb(255,255,255)" stroke="none" d="M 3016,1197 C 2979,1367 2909,1505 2808,1610 2707,1718 2574,1802 2407,1866 2501,2145 2594,2425 2688,2702 2690,2708 2692,2714 2692,2720 2692,2746 2681,2770 2660,2790 2639,2810 2615,2820 2589,2820 2431,2820 2272,2820 2113,2820 2068,2820 2036,2810 2017,2792 1998,2776 1983,2752 1974,2724 1891,2473 1809,2223 1728,1972 1599,1972 1470,1972 1342,1972 1284,2223 1226,2473 1168,2724 1164,2750 1149,2772 1125,2792 1102,2810 1076,2820 1048,2820 883,2820 718,2820 553,2820 525,2820 502,2810 487,2792 469,2772 463,2750 469,2724 643,1966 817,1209 990,451 997,425 1010,403 1033,385 1059,365 1085,357 1112,357 1440,357 1768,357 2098,357 2371,357 2594,415 2771,531 2947,646 3035,810 3035,1022 3035,1089 3029,1147 3016,1197 Z M 2011,902 C 1869,902 1726,902 1584,902 1545,1075 1507,1249 1466,1423 1610,1423 1751,1423 1895,1423 2139,1423 2281,1335 2321,1161 2326,1129 2328,1107 2328,1099 2328,968 2223,902 2011,902 Z M 5089,1912 C 5080,1944 5074,1978 5065,2010 5061,2036 5046,2058 5022,2077 4999,2095 4973,2105 4945,2105 4525,2105 4105,2105 3685,2105 3680,2121 3678,2145 3678,2175 3678,2247 3706,2301 3762,2331 3817,2363 3884,2379 3961,2379 4090,2379 4193,2353 4272,2299 4304,2277 4328,2263 4340,2257 4355,2253 4377,2249 4407,2249 4572,2249 4735,2249 4900,2249 4924,2249 4943,2257 4954,2271 4964,2285 4969,2303 4962,2327 4954,2379 4909,2445 4831,2529 4752,2612 4634,2688 4478,2754 4319,2822 4124,2854 3890,2854 3723,2854 3575,2824 3445,2762 3316,2698 3215,2610 3142,2495 3067,2381 3031,2247 3031,2097 3031,2020 3042,1944 3059,1870 3123,1582 3254,1359 3451,1197 3648,1036 3914,954 4248,954 4433,954 4589,992 4718,1064 4846,1135 4943,1231 5009,1349 5074,1467 5108,1592 5108,1728 5108,1802 5101,1862 5089,1912 Z M 4394,1515 C 4347,1457 4276,1429 4178,1429 4079,1429 3993,1457 3923,1513 3850,1567 3800,1634 3772,1714 4000,1714 4227,1714 4452,1714 4461,1636 4441,1570 4394,1515 Z M 6951,3393 C 6947,3419 6932,3441 6908,3459 6885,3479 6857,3489 6831,3489 6673,3489 6512,3489 6353,3489 6325,3489 6304,3479 6289,3459 6272,3441 6265,3419 6272,3393 6330,3143 6387,2894 6445,2642 6379,2706 6308,2758 6233,2796 6158,2836 6055,2854 5927,2854 5798,2854 5680,2830 5571,2780 5464,2732 5376,2658 5311,2561 5245,2463 5213,2345 5213,2207 5213,2157 5219,2097 5232,2028 5245,1950 5266,1856 5296,1742 5369,1469 5485,1269 5646,1143 5804,1018 6019,954 6287,954 6420,954 6529,976 6613,1016 6698,1058 6760,1107 6801,1165 6805,1139 6812,1111 6818,1085 6825,1060 6838,1036 6863,1018 6887,1000 6913,990 6940,990 7093,990 7245,990 7397,990 7425,990 7446,1000 7463,1018 7481,1036 7485,1060 7481,1085 7305,1854 7127,2622 6951,3393 Z M 6587,1580 C 6544,1527 6473,1501 6368,1501 6259,1501 6169,1529 6102,1584 6036,1640 5987,1714 5957,1806 5939,1862 5924,1928 5912,2004 5909,2018 5907,2038 5907,2066 5907,2141 5931,2201 5974,2243 6019,2287 6087,2309 6184,2309 6287,2309 6372,2281 6441,2227 6510,2171 6557,2105 6585,2028 6613,1952 6632,1870 6640,1782 6647,1702 6628,1634 6587,1580 Z M 9403,2724 C 9399,2750 9384,2772 9360,2792 9337,2810 9311,2820 9283,2820 9123,2820 8964,2820 8803,2820 8775,2820 8754,2810 8737,2792 8722,2772 8715,2750 8720,2724 8726,2698 8732,2670 8739,2642 8696,2708 8632,2760 8548,2798 8464,2836 8342,2854 8188,2854 8072,2854 7961,2830 7858,2780 7755,2732 7671,2658 7609,2561 7545,2463 7515,2345 7515,2207 7515,2145 7519,2087 7530,2032 7543,1954 7564,1858 7594,1746 7667,1481 7789,1283 7965,1151 8139,1020 8344,954 8584,954 8715,954 8822,976 8908,1020 8992,1064 9047,1111 9075,1165 9082,1139 9088,1111 9095,1085 9099,1060 9114,1036 9138,1018 9161,1000 9187,990 9215,990 9373,990 9532,990 9691,990 9718,990 9742,1000 9757,1018 9774,1036 9781,1060 9774,1085 9652,1630 9528,2177 9403,2724 Z M 8870,1570 C 8829,1523 8760,1501 8668,1501 8559,1501 8471,1529 8404,1584 8338,1640 8289,1714 8259,1806 8237,1866 8220,1932 8214,2004 8212,2018 8209,2038 8209,2066 8209,2227 8302,2309 8482,2309 8584,2309 8668,2281 8732,2227 8797,2173 8844,2107 8876,2028 8891,1988 8904,1940 8915,1884 8925,1826 8932,1782 8932,1746 8932,1676 8910,1616 8870,1570 Z M 11703,2724 C 11697,2750 11682,2772 11658,2792 11635,2810 11609,2820 11581,2820 11429,2820 11277,2820 11124,2820 11097,2820 11075,2810 11058,2792 11041,2772 11037,2750 11041,2724 11047,2698 11054,2670 11060,2642 11049,2652 11024,2678 10985,2720 10944,2762 10884,2796 10809,2820 10732,2842 10636,2854 10522,2854 10404,2854 10291,2830 10184,2778 10074,2728 9986,2652 9916,2555 9847,2455 9813,2333 9813,2193 9813,2133 9817,2079 9828,2032 9841,1954 9862,1858 9892,1746 9967,1471 10085,1271 10244,1145 10402,1018 10614,954 10882,954 11013,954 11122,976 11208,1020 11294,1064 11350,1111 11377,1165 11435,916 11493,666 11551,417 11555,391 11570,369 11594,349 11617,331 11645,321 11671,321 11832,321 11990,321 12149,321 12177,321 12198,331 12213,349 12230,369 12237,391 12230,417 12055,1185 11879,1956 11703,2724 Z M 11174,1570 C 11131,1523 11060,1501 10966,1501 10857,1501 10769,1529 10702,1584 10636,1640 10586,1714 10556,1806 10535,1866 10520,1932 10511,2004 10509,2018 10507,2038 10507,2066 10507,2227 10599,2309 10779,2309 10882,2309 10968,2281 11034,2227 11101,2173 11150,2107 11180,2028 11195,1990 11208,1944 11221,1886 11232,1830 11238,1784 11238,1750 11238,1676 11217,1616 11174,1570 Z"/>
        </g>
       </g>
      </g>
     </g>
    </g>
   </g>
  </g>
 </g>
</svg>